<?xml version="1.0" encoding="UTF-8" standalone="no"?>
<svg
   xmlns:dc="http://purl.org/dc/elements/1.1/"
   xmlns:cc="http://creativecommons.org/ns#"
   xmlns:rdf="http://www.w3.org/1999/02/22-rdf-syntax-ns#"
   xmlns:svg="http://www.w3.org/2000/svg"
   xmlns="http://www.w3.org/2000/svg"
   xmlns:sodipodi="http://sodipodi.sourceforge.net/DTD/sodipodi-0.dtd"
   xmlns:inkscape="http://www.inkscape.org/namespaces/inkscape"
   width="345"
   height="154"
   viewBox="0 0 345 154"
   version="1.1"
   id="svg14"
   sodipodi:docname="Silhouette.svg"
   inkscape:version="0.92.3 (2405546, 2018-03-11)">
  <metadata
     id="metadata18">
    <rdf:RDF>
      <cc:Work
         rdf:about="">
        <dc:format>image/svg+xml</dc:format>
        <dc:type
           rdf:resource="http://purl.org/dc/dcmitype/StillImage" />
      </cc:Work>
    </rdf:RDF>
  </metadata>
  <sodipodi:namedview
     pagecolor="#ffffff"
     bordercolor="#666666"
     borderopacity="1"
     objecttolerance="10"
     gridtolerance="10"
     guidetolerance="10"
     inkscape:pageopacity="0"
     inkscape:pageshadow="2"
     inkscape:window-width="1920"
     inkscape:window-height="1001"
     id="namedview16"
     showgrid="false"
     inkscape:zoom="2.7792371"
     inkscape:cx="205.02354"
     inkscape:cy="95.843976"
     inkscape:window-x="-9"
     inkscape:window-y="-9"
     inkscape:window-maximized="1"
     inkscape:current-layer="Silhouette" />
  <defs
     id="defs4">
    <clipPath
       id="clip-path">
      <rect
         id="Graphic_Container"
         data-name="Graphic Container"
         width="345"
         height="154"
         transform="translate(15 149)"
         fill="#fff"
         stroke="#84c5ff"
         stroke-width="1" />
    </clipPath>
  </defs>
  <g
     id="Silhouette"
     transform="translate(-15 -149)"
     clip-path="url(#clip-path)">
    <rect
       id="Shadow"
       width="345"
       height="144"
       transform="translate(15 149)"
       opacity="0.2" />
    <g
       id="Card_Container"
       data-name="Card Container"
       transform="translate(15 149)"
       fill="#fff"
       stroke="#84c5ff"
       stroke-width="1">
      <rect
         width="345"
         height="154"
         stroke="none"
         id="rect7" />
    </g>
    <path
       id="Graphic"
       d="M355.522,169.7c0-44.634-.413-43.741.388-44.234a.852.852,0,0,0-.022-1.371,6.342,6.342,0,0,0-.565-.606,3.26,3.26,0,0,0-.088-1.083c-.085-1.374.085-2.761-.115-4.125a6.69,6.69,0,0,1,.076-1.532c.179-1.32-.185-.344,1.752-1.881.267-.251.652-.168.987-.191a4.643,4.643,0,0,0,.98-.973,2.6,2.6,0,0,1,.418-1.156,38.369,38.369,0,0,1-2.5-3.035q-1.866,0-3.73.006c-.087-.083-.169-.166-.246-.246-.006-.519-.008-1.037,0-1.555l.206-.192q0-.368,0-.732c-.559-.584-.521-.6-1.111-2.205-.057-1.236-.009-2.476-.023-3.713.01-.364-.253-.788.044-1.1a7.112,7.112,0,0,0,1.2-2.214,4.268,4.268,0,0,0-.6-.853,6.828,6.828,0,0,1-.128-2.02,4.516,4.516,0,0,1,.112-1.607,2.089,2.089,0,0,0,.849-.64c.1-.007.212-.013.325-.018l.19-.174c.529-.151,1.08-.213,1.6-.4a15.961,15.961,0,0,1,3.064-.349l.187-.211c-1.663-1.522.73-.693-5.757-2.405-.18-.06-.357-.124-.526-.194-.085-.122-.173-.241-.254-.356a1,1,0,0,1,.417-.8l-.008-.2c-.91-1.171-.194-1.575-.715-2.327a2.664,2.664,0,0,1-.271-1.138,7.879,7.879,0,0,0-3.375-4.791c-.457-.367-1.143-.525-1.373-1.116a11.791,11.791,0,0,1-.023-1.348c.11-.116.225-.232.341-.346l.24-.006a3.613,3.613,0,0,0,.386-.493,28.5,28.5,0,0,1,6.168-1.275,18.51,18.51,0,0,1-.664-1.836c-.848-.285-5.3-1.055-6.443-1.5-.236-.116-.1-.435-.141-.642.195-.131.4-.256.6-.371a1.235,1.235,0,0,0,.118-.371c-1.322-2.275-.226-1.78-1.216-3.167-.151-4.521-3.858-6.058-4.714-6.725l-.2-.04a6.466,6.466,0,0,0-.83-.572l-.2-.043c-.195-.14-.387-.28-.575-.421a1.389,1.389,0,0,1,.208-.757q-.181-.175-.349-.345c-.926.168-1.76-.59-3.367-1.733-.2-.222-.211-.593-.5-.732a5.971,5.971,0,0,1-.529-.342,7.666,7.666,0,0,1,.14-.968,2.1,2.1,0,0,1,.473-.377.813.813,0,0,0,.006-.858c-.207-.115-.407-.239-.6-.369,0-.076,0-.228,0-.3.022-.03.064-.088.085-.117a5.4,5.4,0,0,1-.216-.527,3.685,3.685,0,0,1,.521-.4c.048-.137.165-.272.119-.425a1.5,1.5,0,0,0-.5-.424,4.219,4.219,0,0,0-.125-1.119l.231-.2a10.922,10.922,0,0,0-.235-1.652l-.174.182c-.069.51-.4,1.029-.156,1.543a1.666,1.666,0,0,1,.1,1.068c-.08.289-.364.431-.592.582-.005.113-.005.228,0,.342.176.118.352.244.525.376-.009.394-.008.789,0,1.184a3.355,3.355,0,0,0-.7.449c-.036.123-.068.246-.1.37a1.948,1.948,0,0,0,.694.672c-.045.4.22.8-.006,1.171a1.3,1.3,0,0,0-.844.82c-1.037.558-2.079,2.343-3.2,2.325-.114.074-.221.149-.329.225l-.138.226.1.128c-.007.17-.006.341,0,.513-1.071.851-4.616,2.167-5.706,6.036a2.672,2.672,0,0,0-.2,1.407c.051.3-.072.737-.441.745-.089.072-.171.145-.25.219a6.707,6.707,0,0,1-.117,1.973,2.074,2.074,0,0,0-.553.46c1.017.827.8,1.127.649,2.05-.557.379-7.325,2.052-7.463,2.085l-.177.194a12.8,12.8,0,0,1,2.247,1.965c.656-.053,4.7.444,5.17.413.076.078.157.159.241.24a13.691,13.691,0,0,0,.089,2.215c.126.972-.216,2.036.29,2.933a6.316,6.316,0,0,1,.589,1.072c.383.946-.008,3.643.258,5.27a5.3,5.3,0,0,1-1.123,3.789,4.453,4.453,0,0,1,.311,1.366c-.028.94.127,2.2-.426,2.757-.491.035-3.7.683-5.086.861-.354.209-.047.639.128.87a1.911,1.911,0,0,0,.639,1.092c.454.269.67.77,1.052,1.118a7.651,7.651,0,0,0,.878.6l.25.034c0,.12,0,.24,0,.362-1.313.387-8.945.37-9.372.521-.583-.027-1.248.173-1.752-.2.111-1.372-.637-3.213.178-4.36.042-.124.084-.247.136-.369a1.686,1.686,0,0,1-.32-.985,2,2,0,0,0,.813-.809c.146-.91.336-.571-.844-1.971-.061-.2-.25-1.5.242-1.782a2.371,2.371,0,0,0,.615-.681,24.691,24.691,0,0,0-1.666-8.562l-.145-.177a8.692,8.692,0,0,0-.934-1.976c-.011-.051-.034-.149-.045-.2-3.42-4.876-3.439-5.58-12.043-11.393-1.906-1.332-6.087-3.225-6.465-3.75a2.4,2.4,0,0,1,.112-.628,2.562,2.562,0,0,0,.815-1.262c-.136-.011-.268-.026-.395-.044-.191-.095-.131-.331-.162-.5-1.168-.017-1.185.139-1.661-.617-4.094-.266-6.313-5.513-8.928-6.816-.027-.352.126-.781-.178-1.048-.249-.279-.306-.7-.627-.915a14.487,14.487,0,0,0-2.479-.925,2.5,2.5,0,0,1,0-1.586,2.23,2.23,0,0,0,.792-.487,1.181,1.181,0,0,0,.008-.88,3.35,3.35,0,0,1-1.127-.774,1.839,1.839,0,0,1,.087-.674c-.238-.671.156-.274.133-1.4.555-.548,1.67-1.632,1.732-2.412a1.436,1.436,0,0,0-.476-.658c-.292-.322-.757-.287-1.143-.392a1.5,1.5,0,0,1-.114-.809c.1-.391.283-.18-.3-.767a4.869,4.869,0,0,0-.13-1.035c.082-.079.169-.159.259-.238l.235-.012a4.137,4.137,0,0,0,.448-.56c-.346-.942-1.295-.8-1.232-3.014l-.182-.172c-.046.11-.09.22-.13.332a2.727,2.727,0,0,1-.623,2.642q-.012.258-.012.519c.081.076.167.151.257.228a1.387,1.387,0,0,1,.683.36c-.076.847.229.848-.678,1.551l.373.192c-.035.235.063.527-.083.725-.264.094-1.69.312-1.781,1.312a5.091,5.091,0,0,0,1.956,2.3c0,.179,0,.36,0,.54l.191.186c.019.419.131.83.121,1.253-.793.913-1.239.436-1.252,1.667.192.145.389.285.586.43l.2.037c.147.106.3.209.453.315a2.181,2.181,0,0,0,.091.893c.007.07.021.211.028.281-.479.456-1.567.5-2.549,1.19a4.945,4.945,0,0,1-.844,1.239c.621.957-.378.937-.759,1.482-6.446,8.345-7.245,6.581-8.071,7.05a2.578,2.578,0,0,1-.386.5c-.3-.005-.6,0-.892-.005a.554.554,0,0,1-.018.6c-.109.051-.211.1-.31.16,1.061,1.3.777.8.841,1.791-1.347,1.336-13.169,7.664-17.409,16.929-.248.458-.446.942-.686,1.4-.115.632-.822.966-1.378,6.425a11.959,11.959,0,0,1,.009,1.652,1.05,1.05,0,0,0,.553,1.092c.285.139.351.463.468.73a3.133,3.133,0,0,0-.04.394c.42,1.121-2.159,1.577-.054,3.5a1.531,1.531,0,0,1-.174.814c-.115.208.1.389.19.56a5.948,5.948,0,0,1,.384,3c-.01.782.362,1.56.091,2.331q-.116.108-.223.223a9.306,9.306,0,0,1-1.922.129,5.923,5.923,0,0,1-2.048.011c-1.224.146-2.465.051-3.7.085-.105-.128-.724-11.678-.536-12.867.149-5.235-.555-4.555.434-5.523l-.322-.3a11.8,11.8,0,0,1,.25-2.172,1.75,1.75,0,0,1,.458-1.1,3.866,3.866,0,0,0,.777-.392c-.25-.323-.7-.344-1.032-.547l-.227-.339c-.013-.1-.023-.2-.029-.3-.839-1.058-.305-.014-1.7-1.855a3.785,3.785,0,0,0-.7-1.017,4.454,4.454,0,0,0,.377.588c-.027.388-.356.629-.586.905a3.713,3.713,0,0,1-.185-1.466c-.84-6.554-.52-6.532-3.064-12.572a1.438,1.438,0,0,1,.317-.679,3.792,3.792,0,0,0,1.215-.469c0-1.1-1.1-1.074-1.646-1.213-.705-1.726-.721-.984-1.675-1.835-.152-.22-.256-.484-.509-.609-.269-.093-.208-.4-.16-.618.138-.315.544-.475.579-.846.01-.343-.343-.526-.555-.738a1.987,1.987,0,0,1,.346-.9c.106-.33-.231-.543-.3-.832,0-.245.1-.479.1-.724-.068-.75-.26-1.48-.351-2.226-.127-.011-.25-.021-.371-.029-.09.726-.158,1.455-.24,2.181-.038.311.179.589.154.9-.1.24-.378.425-.3.714.114.308.438.574.339.933a3.639,3.639,0,0,1-.614.742,34.761,34.761,0,0,0-3.65-4.554,16.007,16.007,0,0,1-1.583-1.822c-.105-.16-.178-.364-.368-.438-.763-.329-3.01-2.741-4.987-4.094-2.683-1.994-4.81-3.511-4.81-3.511a1.452,1.452,0,0,0-.173-1.091c.432-.563.951-.868.642-1.13-.166-.046-.336-.07-.5-.1a1.012,1.012,0,0,1,.336-.508c0-.129-.007-.256-.007-.384a5.012,5.012,0,0,1-1.552-.13,1.552,1.552,0,0,0,.232-.7,8.807,8.807,0,0,1-2.255-.232q-.131-.289-.254-.578c-1.066-.044-.361.983-7.041-5.2-6.151-5.877-6.228-6.249-7.631-6.9-.032-.084-.06-.167-.087-.249.272-.148.637-.294.655-.656.053-.25-.186-.4-.323-.571-.467-.462-.079-1.489-3.251-2.125a1.9,1.9,0,0,1-.847-.363,1.958,1.958,0,0,1-.1-.848c-.077-.1-.152-.2-.225-.3.475-.468,1.942-1.14,1.27-2.175-.238-.446-.816-.486-1.134-.844a3.336,3.336,0,0,1,0-.792c.474-.429.573-.227.1-.931a9.116,9.116,0,0,0,1.517-1.365,1.472,1.472,0,0,0-.98-2.381c-.234-.066-.606-.075-.654-.372.217-.134.621-.176.582-.518-.065-.342-.445-.486-.646-.743-.617-.5,1.031-.627.675-2.021-.147-.5-.807-.794-1.006-1.773.018-.237.277-.42.195-.668-.083-.162-.2-.3-.281-.465-.073-.721.274-.155-.169-1.957l-.244.029c-.347,1.514.012,1.222-.135,2.041-.087.143-.2.267-.275.417-.022.292.347.506.21.8-.357,1.424-1.233,1.181-.887,2.532.112.472.816.372.885.869a1.984,1.984,0,0,1-.808.807,2.092,2.092,0,0,0-.089.521,2.749,2.749,0,0,1,.549.053c.545.6-1.13.3-1.656,1.381-.481,1.523,1.205,2.36,1.625,2.777.19.159-.045.373-.063.558-.108.274.221.381.414.457a1.319,1.319,0,0,0-.03.713c-.366.415-1.019.507-1.261,1.032-.3,1.184.377,1.317,1.176,1.852.035.081.072.163.113.245a2.017,2.017,0,0,0-.083,1.088c-.836.557-1.907.358-3.307,1.407a3.8,3.8,0,0,0-.728,1.026c-.684,1.075-.415,1.094.206,1.572a4.675,4.675,0,0,1-.9.611c-.019.014-10.5,10.534-12.073,11.813a3.474,3.474,0,0,0-.479.039c-.421.284-.24.693-2.794.727-.383.16-.06.573.041.821-.8.537-2.694-.39-1.389,1.262a3.779,3.779,0,0,1-.9.085c-.319.265.041.617.249.814.434.342.334.934.346,1.42.021.329-.348.44-.565.6-1.877,1.305-4.814,3.8-6.6,5.334a38.279,38.279,0,0,0-7.705,8.563c-5.3,8.181-7.022,13.847-6.526,23.311.043,1.082-.308.9.959,2.082a4.807,4.807,0,0,1,.163,1.96c-.358.766-1.079.377-.961,2.93-.362.055-5.943.233-6.082.239-.344.009-.673.13-1.015.149-.583-.145-.631-1-1.783-2.811-4.026-7.668-14.055-12.3-14.193-12.4.044-.252.081-.506.118-.758a1.707,1.707,0,0,0,.684-.382,3.165,3.165,0,0,0-.216-.942c-.339-.022-.738.117-1-.164-.01-.132-.02-.262-.029-.391a6.681,6.681,0,0,1-1.268-.063c-3.868-2.272-4.817-5.5-6.866-6.856.271-.674.249-.444-.011-.889-.333-.429-.2-1.374-2.838-1.7-.015-.043-.048-.13-.065-.173a2.618,2.618,0,0,0,.058-.807,2.856,2.856,0,0,0,.955-.533.968.968,0,0,0-.344-1.447c-.184-.126-.454-.206-.517-.442.009-.256.138-.5.048-.76-.1-.211.136-.322.259-.448-.014-.208-.2-.481.006-.64,4.547-3.916-1.807-3.085.437-4.189-.027-.394-.5-.5-.578-.856.009-.44.5-.575.738-.868.413-1.041-1.176-1.572-.73-3.075.095-.3-.2-.57-.109-.877a2.5,2.5,0,0,0-.268-1.427c-.688,1.3.08,1.234-.381,2.2.561,1.3-.835,1.935-.761,2.813-.032.594.814.722.752,1.337-.241.183-.476.373-.713.56-.006.061-.018.183-.023.244a5.889,5.889,0,0,1,.54.382c-.44.364-1.131.284-1.489.771-.833,1.224.352,2.142,1.217,2.957.216.184-.039.45-.078.664.1.069.2.144.3.225a2.132,2.132,0,0,0,.007.888c-.145.425-.707.449-.942.806a.968.968,0,0,0,.071,1.2c.193.2.488.267.684.466a1.562,1.562,0,0,0-.008.912c-.189.165-1.819.19-2.506,1.011-.664,1.3-.7.835-.41,1.527-.3.417-.829.556-1.191.9a29.345,29.345,0,0,0-2.275,2.678c-.547.06-.734-.539-1-.9-.238-.481.55-.7.4-1.183-.041-.268-.354-.384-.422-.632.067-.242.25-.446.27-.7-.037-.3-.414-.5-.285-.833a3.053,3.053,0,0,0,.018-1.431c-.061-.354.025-.823-.331-1.044a4.656,4.656,0,0,0-.358,1.665,2.242,2.242,0,0,0,.142,1.035c-.147.236-.4.467-.353.772.088.2.278.339.343.546-.14.254-.373.453-.5.722a1,1,0,0,0,.416.592,1.055,1.055,0,0,1-.484,1.177,2.742,2.742,0,0,0-1.194.766c-.311.362-.219.881-.475,1.27a1.164,1.164,0,0,0-1.357.984,2.792,2.792,0,0,1,.832.469l-.093.207c-.435.058-.872-.01-1.305.021a2.182,2.182,0,0,0-.259.38c-.169.021-.336.042-.5.065.02.794.956,1.182.953,1.979-4.933,2.713-5.021,2.321-7.906,4.916-4.348,3.914-6.628,6.789-8.725,12.845-.148.006-.309.057-.437-.043a3.918,3.918,0,0,1-1.128-.943,3.892,3.892,0,0,1-.651-.539c.013-.195.156-.423.008-.594-.172-.29-.554-.054-.8-.193-.594-.374-1.1-.868-1.667-1.276-.909-1.254-.818-.69-.644-1.529a.783.783,0,0,0,.383-.835c-.147-.229-.447-.365-.486-.651-.051-.217.179-.337.292-.483.178-.467-.323-.811-.225-1.273a6.159,6.159,0,0,0-.12-1.62l-.281-.046a6.015,6.015,0,0,0-.2,1.457,3.483,3.483,0,0,1,0,.613,2.244,2.244,0,0,1-.3.36c0,.153,0,.308,0,.465.179.165.384.367.307.64-.544.623-.48.162-.517,1.063.137.125.272.252.408.38,0,.208,0,.418.005.629a1.431,1.431,0,0,0-.5.49,4.878,4.878,0,0,1-1.126,1.161c-.361.34-.894.306-1.314.527-.12.207-.029.463-.036.69-1.762.912-4.22,3.664-4.2,5.766.025.35-.339.515-.632.548-.254.442.041.959-.087,1.434-.013.244-.275.325-.447.438.014.093.03.187.047.283l.382.3c-.057.764.208,1.012-.729,1.24-1.189.2-2.311.688-3.511.826-.431.178-.95.136-1.3.484a1.2,1.2,0,0,0,.578.3c1.349.273,2.643.757,3.983,1.072a1.3,1.3,0,0,0,.764.407c.053.15-.008,3.561-.01,3.681-.062.686.679,1.152.557,1.854-.059.39.2.862-.1,1.187-.736.305-12.562.593-13.443.835-.252.029-.586.132-.77-.1-.177-.183-.095-.461-.1-.686.3-3.682-.191-4.562.055-14.01-.03-.349.353-.486.555-.7-.055-.088-.11-.174-.165-.258a2.627,2.627,0,0,1-.425-.364c.689-.78.227-1.652.926-3.14l.355-.269c.2-.005.41-.007.616-.009.1-.1.2-.209.3-.309-.285-.834-1.084-.711-1.446-.71a2.1,2.1,0,0,1-.211-.625,4.407,4.407,0,0,0-.417-1c-.31-.18-.635-.333-.954-.491a6.315,6.315,0,0,0-.445-.706,1.565,1.565,0,0,1,.508-1c.018-.438-.465-.69-.429-1.128.005-.2.209-.327.321-.475a.775.775,0,0,0-.275-.623c-.126-.148-.051-.35-.025-.517a4.852,4.852,0,0,0-.044-2c-.519.151-.419,1.762-.382,2.286.035.334-.378.622-.154.95a.961.961,0,0,1,.137.729c-.623.619-.438.688-.089,1.18-.005.2-.011.408-.021.613a2.783,2.783,0,0,0-.442.715c-.387.207-.911.294-1.1.749-.226.327-.1.787-.337,1.094-.365.069-.724.16-1.081.264a5,5,0,0,0-.392.489q.1.148.2.3a1.783,1.783,0,0,0,.708.247c.089.073.177.148.267.226a15.673,15.673,0,0,1,.459,2.548.806.806,0,0,1,.308.653c-.164.1-.323.211-.483.321-.022.1-.042.207-.062.312l.476.284c-.1,16.039-.081,15.254-.515,15.333-1.239.187-2.5-.028-3.743.141a8.916,8.916,0,0,1-2.186.14c-.385,0-.749.16-1.134.158a51.741,51.741,0,0,0-5.553.223c-.72.083-1.443-.088-2.162.013-.434-.006-.9.185-1.3-.047.157-.212.269-.48.515-.6.727-.412.522-.44,1.172-1.427a2.749,2.749,0,0,0,.018-.559,2.611,2.611,0,0,1-.9-.136c-.323-.123-.679-.065-1.007-.159-1.61-.488-2.424-.187-2.864-.793a5.2,5.2,0,0,1-.024-2.128c-.01-.251.19-.41.346-.572,0-.152,0-.3,0-.452a2.26,2.26,0,0,1-.566-1.015,8.581,8.581,0,0,1-.113-1.776,33.5,33.5,0,0,0,.007-4.107c.026-.731.783-1.211.761-1.956,0-.14,0-3.836.049-4.213a3.238,3.238,0,0,0,.952-.1,7.408,7.408,0,0,1,1.709-.137c.374-.049,2.447-.833,2.626-.848.735-.409,2.374-.35-3.039-1.652a11.049,11.049,0,0,0-2.215-.82,6.245,6.245,0,0,1,.034-1.162,2.647,2.647,0,0,1,.52-.537,4.924,4.924,0,0,0-.493-.552,10.442,10.442,0,0,1,.039-1.644,2.091,2.091,0,0,0-1.008-.227l-.177-.219c.192-2.047-1.576-5.054-4.558-6.447a2.211,2.211,0,0,0,.238-.609,2.937,2.937,0,0,0-.212-.307,1.111,1.111,0,0,1-.6-.13c-.343-.22-.8-.249-1.049-.6a25.487,25.487,0,0,1-1.869-1.937c.078-.2.142-.411.234-.608s.669-.447.351-1.122c-.83-.772-.537-.623-.043-1.466a4.6,4.6,0,0,0-.436-.634c-.193-.954.5-.689-.146-2.929-.65.966-.214,2.135-.277,2.943-.26.223-.537.489-.4.865.109.1.217.2.327.3,0,.175-.007.351-.011.528-.164.094-.328.189-.493.279-.372.937.206.842.38,1.329.09.23.226.576-.051.738-.293.189-1.52,1.447-2.281,1.954-.37.268-.856.152-1.269.3a3.3,3.3,0,0,0,.191.718c-3.365,1.641-4.816,4.484-4.765,5.745-.036.336.154.768-.166,1.015a6.2,6.2,0,0,1-.777.36c-.159,2.124.25,1.216-.6,2.139.142.178.3.348.432.534a1.819,1.819,0,0,1-.109.948c-.73.072-1.393.447-2.128.493-.322.214-.732.177-1.074.344a3.027,3.027,0,0,0-.692.542c-.621.41-1.331.656-1.971,1.032l.253.31c.549.087,4.262.342,5.1,1,.927.1.8,1.009.622,4.685-.069.61.494,1.053.514,1.655.021,1.163-.044,2.328.006,3.492a4.208,4.208,0,0,1-.17,1.748,4.728,4.728,0,0,0-.338,1.033c-.156.7-.511.383-.276,1.412a4.747,4.747,0,0,1-.058,2.465,2.3,2.3,0,0,1-.992.153c-.882-.063-2.175.8-2.983.944a2.047,2.047,0,0,0-.123.479c.383.367.434.93.77,1.329q.154.026.309.059a10.973,10.973,0,0,0,.668.987h.345q.182-.2.368-.386a7.259,7.259,0,0,1,1.483,1q.188,0,.377.006c.367.992.055-.58-.028,4.834.069.975-.046,1.947-.07,2.921-1.167.656-.866,1.359-.638,1.562.21.163.456.273.668.437-.441,24.963-.774,22.837-.872,42.37l344.612,3Zm-7.68-66.493c-.11-.333.061-.665.03-1,.863-.044,1.4-.792,1.984-1.33.382.256.147,1.405.316,2.943a3.408,3.408,0,0,1-.451.52c-.3.6-.058.794-.882,1.185a1.555,1.555,0,0,0-.711-.1c-.364-.271-.26-.756-.338-1.146A3.005,3.005,0,0,0,347.842,103.2ZM331.3,84.294c.537.394.492,1.14.469,1.736-.066.48.085,1.054-.312,1.424,0,.091,0,.271,0,.361.106.187.214.376.316.571.033.3-.141.575-.076.872a3.753,3.753,0,0,1-.412-1.88A13.891,13.891,0,0,1,331.3,84.294Zm-4.155.01c.087-.774,1.119-.98,1.194-1.76.07-.333-.016-.7.175-1,.315.217.791.32.877.756a53.063,53.063,0,0,1,.22,6.111.867.867,0,0,1-.284.79c-.381.249-.2.811-.567,1.075-.39.2-.841.24-1.244.4-.082-.072-.161-.144-.234-.215C327.277,90.116,326.978,85.266,327.144,84.3ZM77,110.237a3.509,3.509,0,0,0,0-.929c.284-.256.382-.651.676-.9a.8.8,0,0,0,.654-.207c.366-.074.692.267.82.585.075.252.34.348.5.537.488.975.164,1.11.3,1.949a.859.859,0,0,1-.706.3c-.916,0-1.823.16-2.74.116l-.152-.2C76.269,110.944,76.79,110.661,77,110.237Zm-5.337-.149c.211-.285.109-.655.173-.979a7.788,7.788,0,0,0,.427-.713,2.086,2.086,0,0,0,.728-.286c.094-.057.21-.189.325-.091,1.755,1.109,1.245,2.089,1.33,3.15-.031.786.106.742-3.346.728C71.012,111.238,71.042,111.027,71.663,110.088Zm-3.115,0c.151-.167.273-.362.434-.519.763-.567.542,1.736.568,2.027a.591.591,0,0,1-1.1.173A5.073,5.073,0,0,1,68.548,110.09ZM28.181,101.7a3.643,3.643,0,0,1,.256-1.989c.139-.174.264-.463.537-.387.317-.04.245.078.2,5.157.045.475-.469.735-.5,1.2l-.22.159c-.1-.079-.2-.151-.287-.238C28.042,104.3,28.241,103,28.181,101.7Zm-1.252-1.658.177-.141c.072.112.146.226.218.342.051,1.106-.192,2.208-.051,3.314.011.285.164.677-.156.851-.283-.013-.269-.345-.269-.548A32.309,32.309,0,0,1,26.93,100.041Zm-3.345-.763a2.642,2.642,0,0,1,.22-1.381c.081-.6.806-.613,1.121-1.03.417.01.446.456.464.776,1.406,1.883.359,3.758.678,6.224.064.341-.2.61-.262.929a2.872,2.872,0,0,1-.479,1.1c-.711.325-1.484-.022-2.225.027-.182-.027-.5.047-.532-.212C22.6,98.719,22.684,100.859,23.585,99.278Zm-2.943-.762.177-.195.308.219c.028.319-.005.643.038.962.579,1.43.614-1.007.6,6.013a.206.206,0,0,1-.312.142c-.606-.479-.472-1.14-.62-1.375-.084-.2-.267-.388-.25-.62C20.713,101.853,20.514,100.216,20.642,98.516Zm-4.064,1.411c.115-.4.6-.567.687-.984.041-.268.021-.542.081-.8a.627.627,0,0,0,.444-.629c.223-.262.589-.213.9-.269.33-.058.481.292.706.461.638.555.276,1.641.313,5.958.053.3-.214.482-.4.663a2.07,2.07,0,0,1-.741,1.518,5.67,5.67,0,0,0-1.54.044.5.5,0,0,1-.574-.486A43.414,43.414,0,0,1,16.578,99.927ZM15,100.559c.026-.339-.127-.768.174-1.021l.271-.009a1.551,1.551,0,0,1,.183.828c-.108,1.441-.018,2.889-.048,4.334-.122-.005-.243-.008-.364-.01l-.253-.256C14.924,103.137,15.049,101.848,15,100.559Zm-1.127-1.771c.7.117.116.076.246,4.965a1.9,1.9,0,0,1-.49,1.3c-.107-.066-.214-.13-.32-.194C13.342,99.329,13.431,99.105,13.877,98.788Z"
       transform="translate(4.848 147.491)"
       fill="#84c5ff" />
  </g>
</svg>
