<?xml version="1.0" encoding="utf-8"?>

<!DOCTYPE svg PUBLIC "-//W3C//DTD SVG 1.1//EN" "http://www.w3.org/Graphics/SVG/1.1/DTD/svg11.dtd">
<svg version="1.1" id="Layer_1" xmlns="http://www.w3.org/2000/svg" xmlns:xlink="http://www.w3.org/1999/xlink" x="0px" y="0px"
	 viewBox="0 0 2656.224 1265.416" enable-background="new 0 0 2656.224 1265.416" xml:space="preserve">
<path d="M2580.5,1212.966c0-323.356-2.994-295.153,2.813-298.724c3.381-2.231,3.149-7.799-0.157-9.933
	c-1.291-1.552-2.635-3.037-4.097-4.388c-0.037-2.627,0.276-5.343-0.634-7.843c-0.612-9.956,0.612-20.001-0.836-29.881
	c-0.082-3.709-0.216-7.448,0.552-11.097c1.295-9.56-1.342-2.489,12.695-13.627c1.933-1.821,4.724-1.216,7.149-1.381
	c3.015-1.657,4.754-4.657,7.097-7.052c0.118-2.934,1.537-5.824,3.03-8.373c0,0-8.846-9.446-18.142-21.986
	c-9.015,0.007-18.023,0.037-27.023,0.045c-0.627-0.605-1.224-1.202-1.784-1.784c-0.045-3.761-0.06-7.515-0.022-11.269
	c0.373-0.343,1.119-1.045,1.492-1.388c-0.022-1.776-0.022-3.545,0.008-5.306c-4.048-4.229-3.773-4.367-8.052-15.978
	c-0.411-8.955-0.067-17.941-0.164-26.896c0.075-2.634-1.836-5.709,0.321-7.948c4.451-4.851,4.999-8.057,8.702-16.038
	c-1.246-2.202-2.612-4.351-4.351-6.179c-1.717-4.694-0.657-9.761-0.925-14.635c0.194-3.873-0.769-7.97,0.813-11.642
	c2.508-0.843,4.411-2.709,6.149-4.634c0.754-0.052,1.537-0.097,2.358-0.127c0.343-0.313,1.03-0.94,1.373-1.261
	c3.829-1.097,7.821-1.545,11.575-2.918c7.852-0.586,3.287-1.938,22.195-2.53c0.336-0.381,1.015-1.149,1.358-1.53
	c-12.048-11.029,5.292-5.018-41.71-17.426c-1.306-0.433-2.583-0.896-3.814-1.403c-0.619-0.881-1.254-1.746-1.843-2.582
	c-0.164-2.411,1.313-4.299,3.022-5.806c-0.015-0.366-0.045-1.097-0.06-1.463c-6.59-8.48-1.407-11.41-5.179-16.859
	c-1.701-2.433-1.47-5.463-1.963-8.246c-0.966-8.993-10.459-25.876-24.448-34.71c-3.313-2.657-8.284-3.806-9.948-8.082
	c-0.44-3.239-0.097-6.523-0.164-9.769c0.798-0.843,1.627-1.679,2.47-2.508c0.433-0.015,1.306-0.037,1.739-0.045
	c1.008-1.112,1.985-2.284,2.799-3.575c14.434-5.61,34.446-7.916,44.688-9.239c-1.418-4.5-3.866-8.635-4.814-13.299
	c-6.144-2.063-38.369-7.645-46.68-10.836c-1.709-0.843-0.739-3.149-1.022-4.649c1.41-0.948,2.866-1.851,4.381-2.687
	c0.261-0.896,0.881-1.724,0.851-2.687c-9.574-16.484-1.639-12.898-8.806-22.941c-1.093-32.756-27.95-43.889-34.15-48.718
	c-0.366-0.075-1.097-0.224-1.463-0.291c-1.828-1.649-3.993-2.821-6.015-4.142c-0.366-0.075-1.09-0.231-1.455-0.313
	c-1.41-1.015-2.806-2.03-4.164-3.052c-0.015-1.955,0.47-3.828,1.508-5.485c-0.873-0.843-1.716-1.679-2.53-2.5
	c-6.712,1.219-12.748-4.275-24.396-12.553c-1.455-1.605-1.53-4.299-3.612-5.306c-1.328-0.769-2.62-1.59-3.836-2.478
	c0.157-2.366,0.56-4.694,1.015-7.015c1.015-1.037,2.127-2.008,3.426-2.731c1.239-1.903,1.172-4.284,0.045-6.217
	c-1.5-0.836-2.948-1.731-4.343-2.672c-0.008-0.552-0.015-1.649-0.022-2.194c0.157-0.216,0.463-0.634,0.612-0.851
	c-0.59-1.261-1.119-2.522-1.567-3.821c1.179-1.045,2.403-2.067,3.776-2.903c0.351-0.993,1.194-1.97,0.865-3.082
	c-0.873-1.396-2.313-2.224-3.627-3.075c0.089-2.739-0.269-5.455-0.903-8.105c0.418-0.358,1.254-1.075,1.672-1.433
	c0.224-4.09-1.313-7.955-1.701-11.97c-0.314,0.328-0.94,0.985-1.261,1.321c-0.5,3.694-2.903,7.455-1.127,11.179
	c1.254,2.366,1.179,5.164,0.731,7.739c-0.582,2.097-2.634,3.12-4.291,4.217c-0.037,0.821-0.037,1.649,0,2.478
	c1.276,0.858,2.552,1.769,3.806,2.724c-0.067,2.851-0.06,5.717-0.03,8.575c-1.813,0.918-3.567,1.925-5.09,3.254
	c-0.261,0.888-0.493,1.784-0.739,2.679c0.985,2.231,3.172,3.426,5.03,4.866c-0.329,2.866,1.597,5.814-0.045,8.485
	c-2.911,0.888-5.09,3.112-6.112,5.941c-7.514,4.039-15.059,16.973-23.202,16.844c-0.828,0.537-1.604,1.082-2.381,1.627
	c-0.246,0.403-0.746,1.224-1,1.634c0.187,0.231,0.552,0.694,0.739,0.925c-0.052,1.231-0.045,2.47-0.015,3.717
	c-7.761,6.162-33.439,15.698-41.337,43.732c-0.896,3.299-2.41,6.754-1.448,10.194c0.373,2.209-0.522,5.336-3.194,5.396
	c-0.642,0.522-1.239,1.052-1.814,1.59c-0.418,4.731,0.97,9.784-0.851,14.291c-1.567,0.828-2.844,2.052-4.008,3.336
	c7.369,5.988,5.823,8.162,4.702,14.851c-4.032,2.748-53.068,14.868-54.069,15.105c-0.321,0.351-0.963,1.052-1.284,1.403
	c2.938,1.279,13.216,10.618,16.277,14.239c4.749-0.387,34.054,3.215,37.456,2.993c0.552,0.567,1.134,1.149,1.746,1.739
	c0.246,5.351-0.47,10.761,0.642,16.045c0.91,7.045-1.567,14.747,2.104,21.247c1.306,2.657,3.47,4.843,4.269,7.769
	c2.776,6.85-0.06,26.392,1.866,38.18c0.527,6.585-0.885,20.487-8.135,27.449c0.866,3.261,2.44,6.433,2.254,9.896
	c-0.204,6.808,0.917,15.92-3.089,19.971c-3.554,0.254-26.824,4.947-36.844,6.239c-2.567,1.515-0.343,4.627,0.925,6.306
	c0.261,3.187,2.523,5.694,4.627,7.911c3.291,1.948,4.851,5.582,7.62,8.097c1.888,1.754,4.239,2.888,6.358,4.366
	c0.455,0.06,1.358,0.187,1.813,0.246c-0.03,0.866-0.03,1.739,0.007,2.62c-9.513,2.807-64.802,2.68-67.897,3.776
	c-4.224-0.194-9.038,1.254-12.694-1.455c0.801-9.941-4.618-23.277,1.291-31.59c0.306-0.896,0.612-1.791,0.985-2.672
	c-1.306-2.187-2.53-4.515-2.321-7.135c2.605-1.202,4.396-3.47,5.888-5.858c1.056-6.595,2.432-4.136-6.112-14.277
	c-0.443-1.449-1.81-10.895,1.754-12.911c1.911-1.209,3.164-3.119,4.455-4.933c0.539-30.73-10.937-58.249-12.067-62.031
	c-0.261-0.321-0.791-0.963-1.052-1.284c-1.746-4.985-3.828-9.918-6.769-14.314c-0.082-0.366-0.246-1.082-0.329-1.44
	c-24.779-35.327-24.917-40.427-87.249-82.539c-13.81-9.65-44.099-23.365-46.837-27.165c-0.134-1.552,0.537-3.045,0.813-4.552
	c2.5-2.672,5.269-5.351,5.903-9.142c-0.985-0.082-1.94-0.187-2.858-0.321c-1.381-0.687-0.948-2.396-1.172-3.605
	c-8.459-0.12-8.582,1.008-12.03-4.47c-29.659-1.926-45.734-39.939-64.681-49.382c-0.194-2.552,0.911-5.657-1.291-7.59
	c-1.806-2.023-2.216-5.06-4.545-6.627c-6.619-4.314-13.641-4.48-17.956-6.702c-1.216-3.657-1.276-7.858,0.007-11.493
	c2.157-0.724,4.068-1.993,5.739-3.53c0.933-2.082,0.769-4.261,0.06-6.373c-2.978-1.493-5.993-3.015-8.164-5.605
	c-0.022-1.657,0.045-3.321,0.627-4.881c-1.724-4.859,1.134-1.983,0.963-10.112c4.018-3.967,12.099-11.823,12.545-17.471
	c-0.396-1.993-2.097-3.388-3.448-4.769c-2.112-2.336-5.485-2.082-8.284-2.843c-0.888-1.836-1.022-3.858-0.828-5.858
	c0.734-2.836,2.052-1.306-2.202-5.56c-0.022-2.53-0.381-5.037-0.94-7.5c0.597-0.575,1.224-1.149,1.873-1.724
	c0.425-0.022,1.276-0.067,1.702-0.089c1.194-1.246,2.276-2.612,3.246-4.06c-2.509-6.826-9.38-5.792-8.926-21.836
	c-0.328-0.313-0.985-0.933-1.321-1.246c-0.336,0.799-0.649,1.597-0.94,2.403c2.112,6.627,0.187,14.068-4.515,19.142
	c-0.06,1.246-0.089,2.5-0.089,3.761c0.589,0.552,1.209,1.097,1.858,1.649c1.858,0.381,3.56,1.276,4.948,2.605
	c-0.552,6.136,1.66,6.14-4.911,11.239c0.881,0.455,1.776,0.918,2.702,1.388c-0.254,1.702,0.455,3.821-0.605,5.254
	c-1.913,0.683-12.244,2.26-12.903,9.508c1.07,5.68,9.801,13.955,14.172,16.68c-0.015,1.299-0.007,2.605,0.022,3.911
	c0.343,0.336,1.037,1.015,1.381,1.351c0.134,3.037,0.948,6.015,0.88,9.075c-5.744,6.618-8.977,3.156-9.067,12.075
	c1.388,1.052,2.821,2.067,4.246,3.112c0.366,0.067,1.097,0.202,1.463,0.269c1.067,0.769,2.172,1.515,3.284,2.284
	c-0.067,2.172-0.172,4.403,0.657,6.47c0.052,0.507,0.149,1.53,0.202,2.037c-3.468,3.306-11.349,3.614-18.463,8.62
	c-2.09,2.978-3.149,6.679-6.112,8.978c4.501,6.931-2.739,6.787-5.5,10.739c-46.699,60.458-52.489,47.676-58.472,51.076
	c-0.754,1.328-1.754,2.493-2.799,3.59c-2.164-0.037-4.328-0.015-6.463-0.037c0.985,1.366,0.567,2.925-0.127,4.314
	c-0.791,0.366-1.53,0.754-2.246,1.157c7.688,9.383,5.632,5.811,6.09,12.978c-9.76,9.676-95.402,55.524-126.123,122.645
	c-1.798,3.321-3.231,6.821-4.97,10.172c-0.831,4.581-5.957,7.001-9.985,46.546c-0.463,4.015,1.082,8,0.067,11.97
	c-0.769,3.276,1.336,6.254,4.008,7.911c2.067,1.008,2.545,3.351,3.388,5.291c-0.157,0.94-0.254,1.896-0.291,2.858
	c3.041,8.119-15.642,11.427-0.388,25.359c0.082,2.052-0.254,4.075-1.261,5.896c-0.836,1.508,0.694,2.821,1.373,4.06
	c3.851,6.605,2.657,14.448,2.784,21.754c-0.075,5.664,2.619,11.299,0.657,16.888c-0.56,0.522-1.097,1.06-1.612,1.612
	c-4.56,1.254-9.292,0.642-13.926,0.933c-4.903,0.798-9.948,1.007-14.836,0.082c-8.866,1.06-17.859,0.373-26.784,0.619
	c-0.764-0.925-5.247-84.6-3.881-93.219c1.08-37.924-4.018-33,3.142-40.009c-0.798-0.731-1.574-1.448-2.336-2.157
	c-0.575-5.366,1.41-10.456,1.813-15.739c0.216-2.933,1.261-5.799,3.321-7.94c1.814-1.052,4.038-1.373,5.627-2.843
	c-1.813-2.343-5.075-2.493-7.478-3.963c-0.56-0.836-1.112-1.657-1.642-2.455c-0.097-0.724-0.164-1.433-0.209-2.142
	c-6.076-7.666-2.213-0.098-12.306-13.441c-0.948-2.903-3.291-4.985-5.067-7.366c0.784,1.485,1.709,2.896,2.731,4.261
	c-0.194,2.814-2.582,4.56-4.246,6.56c-1.843-3.254-0.911-7.09-1.343-10.62c-6.087-47.48-3.768-47.321-22.195-91.077
	c0.06-1.881,1.343-3.388,2.298-4.918c2.993-0.925,6.232-1.47,8.799-3.396c-0.021-7.997-7.963-7.784-11.926-8.791
	c-5.109-12.503-5.225-7.127-12.135-13.291c-1.104-1.597-1.858-3.508-3.687-4.411c-1.948-0.672-1.508-2.911-1.157-4.478
	c1-2.284,3.94-3.44,4.194-6.127c0.075-2.485-2.485-3.814-4.022-5.343c0.045-2.463,1.373-4.478,2.508-6.552
	c0.768-2.388-1.672-3.933-2.187-6.03c0.015-1.776,0.709-3.47,0.694-5.246c-0.493-5.433-1.881-10.724-2.545-16.127
	c-0.918-0.082-1.813-0.149-2.687-0.209c-0.649,5.261-1.142,10.538-1.739,15.799c-0.276,2.254,1.299,4.269,1.119,6.515
	c-0.709,1.739-2.739,3.082-2.187,5.172c0.828,2.231,3.172,4.157,2.455,6.761c-1.037,2.112-2.918,3.634-4.448,5.373
	c-1.381-1.868-10.722-16.531-26.441-32.993c-3.59-4.605-8.567-8.045-11.47-13.202c-0.761-1.157-1.291-2.634-2.664-3.172
	c-5.525-2.383-21.807-19.861-36.128-29.658c-19.439-14.447-34.844-25.434-34.844-25.434c0.716-2.731,0.112-5.5-1.254-7.903
	c3.132-4.077,6.89-6.287,4.649-8.187c-1.202-0.336-2.433-0.507-3.612-0.716c0.321-1.508,1.343-2.649,2.433-3.679
	c-0.03-0.933-0.052-1.858-0.052-2.784c-3.754-0.478-7.702,0.701-11.247-0.94c0.866-1.59,1.642-3.254,1.679-5.105
	c-5.463-0.172-11.06-0.104-16.336-1.679c-0.634-1.395-1.246-2.791-1.843-4.187c-7.725-0.316-2.613,7.121-51.009-37.658
	c-44.562-42.58-45.118-45.273-55.285-49.994c-0.231-0.605-0.433-1.209-0.627-1.806c1.97-1.075,4.612-2.127,4.746-4.754
	c0.381-1.814-1.351-2.925-2.343-4.134c-3.387-3.349-0.572-10.785-23.553-15.396c-2.164-0.522-4.455-1.119-6.135-2.627
	c-1.03-1.858-0.567-4.112-0.702-6.142c-0.56-0.724-1.104-1.455-1.627-2.172c3.44-3.39,14.066-8.259,9.202-15.754
	c-1.724-3.231-5.911-3.522-8.217-6.112c-0.426-1.881-0.045-3.836-0.015-5.739c3.431-3.106,4.149-1.644,0.709-6.746
	c3.642-3.313,8.127-5.784,10.993-9.888c4.609-6.209,2.084-15.965-7.097-17.247c-1.694-0.478-4.388-0.545-4.739-2.694
	c1.575-0.97,4.5-1.276,4.217-3.754c-0.47-2.478-3.224-3.522-4.679-5.381c-4.469-3.641,7.466-4.544,4.888-14.642
	c-1.066-3.645-5.847-5.753-7.291-12.844c0.127-1.716,2.008-3.045,1.411-4.843c-0.604-1.172-1.44-2.202-2.037-3.366
	c-0.532-5.225,1.987-1.125-1.224-14.179c-0.44,0.052-1.328,0.157-1.769,0.209c-2.516,10.97,0.085,8.851-0.978,14.784
	c-0.627,1.037-1.47,1.933-1.993,3.022c-0.157,2.112,2.515,3.664,1.522,5.814c-2.59,10.317-8.935,8.556-6.426,18.344
	c0.813,3.418,5.911,2.694,6.411,6.299c-1.142,2.597-3.53,4.358-5.851,5.843c-0.381,1.231-0.582,2.5-0.642,3.776
	c1.298,0.104,2.672,0.007,3.978,0.381c3.949,4.311-8.188,2.192-12,10.008c-3.484,11.03,8.733,17.1,11.769,20.12
	c1.373,1.149-0.328,2.702-0.455,4.045c-0.784,1.985,1.604,2.761,3,3.314c-0.515,1.687-0.649,3.433-0.216,5.164
	c-2.649,3.008-7.381,3.672-9.135,7.478c-2.204,8.575,2.73,9.544,8.523,13.418c0.254,0.59,0.522,1.179,0.821,1.776
	c-1.425,2.44-0.619,5.231-0.604,7.881c-6.057,4.038-13.817,2.59-23.956,10.194c-2.508,1.873-3.56,4.925-5.276,7.433
	c-4.958,7.791-3.01,7.929,1.493,11.388c-1.769,2.03-4.388,2.888-6.523,4.425c-0.137,0.101-76.105,76.313-87.465,85.584
	c-1.179,0.06-2.343,0.067-3.47,0.284c-3.049,2.055-1.74,5.019-20.239,5.269c-2.776,1.157-0.433,4.149,0.298,5.948
	c-5.818,3.887-19.516-2.823-10.06,9.142c-2.09,0.896-4.381,0.246-6.537,0.619c-2.313,1.918,0.299,4.47,1.806,5.896
	c3.142,2.478,2.418,6.769,2.508,10.284c0.149,2.381-2.522,3.187-4.09,4.343c-13.596,9.456-34.878,27.516-47.815,38.643
	c-34.937,28.529-51.535,56.41-55.822,62.039c-38.4,59.27-50.87,100.32-47.277,168.878c0.309,7.837-2.235,6.542,6.948,15.083
	c1.321,1.098,1.699,11.645,1.179,14.202c-2.592,5.548-7.817,2.734-6.963,21.224c-2.623,0.399-43.057,1.688-44.061,1.731
	c-2.493,0.067-4.873,0.94-7.351,1.082c-4.221-1.051-4.573-7.274-12.918-20.366c-29.164-55.55-101.823-89.077-102.824-89.853
	c0.321-1.828,0.59-3.664,0.858-5.493c1.716-0.739,3.694-1.276,4.955-2.769c0.291-2.358-1.142-4.545-1.567-6.821
	c-2.455-0.157-5.343,0.851-7.254-1.187c-0.075-0.955-0.142-1.896-0.209-2.836c-3.06-0.187-6.202,0.313-9.187-0.455
	c-28.02-16.458-34.898-39.869-49.74-49.673c1.965-4.882,1.803-3.216-0.082-6.44c-2.41-3.11-1.459-9.957-20.56-12.351
	c-0.112-0.313-0.351-0.94-0.47-1.254c0.493-1.91,0.53-3.888,0.418-5.843c2.328-1.194,5.134-1.799,6.918-3.858
	c2.836-3.179,1.246-8.747-2.493-10.485c-1.336-0.911-3.291-1.493-3.746-3.202c0.067-1.858,1-3.657,0.351-5.508
	c-0.716-1.53,0.985-2.336,1.873-3.246c-0.104-1.508-1.448-3.485,0.045-4.635c32.943-28.369-13.09-22.349,3.164-30.351
	c-0.194-2.851-3.649-3.642-4.187-6.202c0.067-3.187,3.62-4.164,5.343-6.291c2.99-7.544-8.521-11.389-5.291-22.277
	c0.687-2.187-1.425-4.127-0.791-6.351c0.552-3.567-0.44-7.127-1.94-10.336c-4.988,9.386,0.579,8.94-2.761,15.97
	c4.065,9.436-6.049,14.021-5.515,20.381c-0.231,4.306,5.896,5.232,5.448,9.687c-1.746,1.328-3.448,2.702-5.164,4.06
	c-0.045,0.44-0.127,1.328-0.164,1.769c1.336,0.858,2.664,1.754,3.911,2.769c-3.187,2.634-8.194,2.06-10.784,5.582
	c-6.032,8.866,2.547,15.518,8.814,21.426c1.567,1.336-0.284,3.261-0.567,4.814c0.746,0.5,1.478,1.045,2.194,1.627
	c-0.343,2.149-0.508,4.291,0.052,6.433c-1.052,3.082-5.12,3.254-6.828,5.836c-1.724,2.552-1.784,6.44,0.515,8.687
	c1.396,1.47,3.537,1.933,4.955,3.373c-0.858,2.187-0.515,4.373-0.06,6.605c-1.369,1.193-13.18,1.376-18.157,7.321
	c-4.808,9.451-5.06,6.05-2.97,11.06c-2.149,3.022-6.008,4.03-8.627,6.552c-4.018,3.829-14.309,16.184-16.478,19.403
	c-3.963,0.433-5.321-3.903-7.261-6.493c-1.724-3.485,3.985-5.097,2.873-8.567c-0.298-1.94-2.567-2.784-3.06-4.575
	c0.485-1.754,1.814-3.231,1.955-5.075c-0.269-2.172-3-3.642-2.067-6.038c1.142-3.396,0.634-6.911,0.134-10.366
	c-0.44-2.567,0.179-5.963-2.396-7.56c-2.187,3.627-1.873,8.023-2.597,12.06c-0.53,2.56,0.373,5.06,1.03,7.5
	c-1.067,1.709-2.888,3.381-2.56,5.59c0.634,1.418,2.015,2.455,2.485,3.955c-1.015,1.843-2.702,3.284-3.612,5.231
	c0.619,1.664,1.343,3.396,3.015,4.291c1.358,3.351-0.97,6.552-3.508,8.53c-3.045,1.545-6.664,2.545-8.649,5.552
	c-2.254,2.62-1.59,6.381-3.44,9.202c-4.538-0.575-9.493,2.254-9.829,7.127c2.149,0.851,4.269,1.851,6.03,3.396
	c-0.164,0.373-0.5,1.119-0.672,1.5c-3.149,0.418-6.314-0.075-9.456,0.149c-0.761,0.813-1.299,1.799-1.873,2.754
	c-1.224,0.149-2.433,0.306-3.642,0.47c0.142,5.754,6.926,8.56,6.903,14.336c-35.737,19.654-36.378,16.818-57.278,35.613
	c-31.503,28.353-48.02,49.181-63.211,93.055c-1.075,0.045-2.239,0.41-3.164-0.313c-3.03-1.866-6.023-3.948-8.172-6.829
	c-1.702-1.142-3.306-2.425-4.717-3.903c0.097-1.411,1.127-3.067,0.06-4.306c-1.246-2.104-4.015-0.388-5.799-1.396
	c-4.306-2.709-7.956-6.291-12.075-9.247c-6.583-9.083-5.929-4.997-4.664-11.075c1.993-1.261,3.433-3.664,2.776-6.052
	c-1.067-1.657-3.239-2.642-3.522-4.717c-0.366-1.575,1.299-2.44,2.119-3.5c1.291-3.381-2.343-5.873-1.627-9.224
	c0.403-3.94-0.231-7.858-0.866-11.739c-0.508-0.082-1.53-0.254-2.037-0.336c-0.657,3.485-1.657,6.97-1.448,10.553
	c0.015,1.47,0.216,2.963-0.03,4.44c-0.545,1-1.463,1.746-2.202,2.605c-0.015,1.112-0.015,2.231,0.015,3.366
	c1.299,1.194,2.784,2.657,2.224,4.635c-3.944,4.512-3.48,1.172-3.746,7.702c0.993,0.903,1.97,1.828,2.955,2.754
	c0.015,1.508,0.03,3.03,0.037,4.56c-1.41,0.963-2.851,1.993-3.657,3.552c-1.911,3.493-5.276,5.791-8.157,8.411
	c-2.612,2.463-6.478,2.216-9.523,3.821c-0.866,1.5-0.209,3.351-0.261,5c-12.768,6.609-30.575,26.548-30.426,41.77
	c0.179,2.537-2.455,3.731-4.575,3.97c-1.843,3.202,0.298,6.948-0.627,10.388c-0.097,1.769-1.993,2.351-3.239,3.172
	c0.104,0.672,0.216,1.358,0.343,2.052c0.91,0.709,1.836,1.425,2.769,2.142c-0.414,5.534,1.508,7.335-5.284,8.985
	c-8.612,1.433-16.739,4.985-25.434,5.985c-3.119,1.291-6.881,0.985-9.411,3.508c1.284,0.888,2.53,2.09,4.187,2.187
	c9.776,1.978,19.15,5.485,28.859,7.769c1.56,1.448,3.321,2.769,5.537,2.948c0.383,1.084-0.061,25.801-0.075,26.665
	c-0.448,4.97,4.918,8.344,4.037,13.433c-0.425,2.828,1.44,6.246-0.746,8.597c-5.333,2.212-91.007,4.298-97.391,6.052
	c-1.828,0.209-4.246,0.955-5.582-0.731c-1.284-1.328-0.687-3.343-0.731-4.97c2.2-26.677-1.383-33.053,0.396-101.495
	c-0.216-2.53,2.56-3.522,4.022-5.067c-0.396-0.634-0.799-1.261-1.194-1.866c-1.134-0.754-2.149-1.672-3.082-2.634
	c4.992-5.651,1.647-11.97,6.709-22.747c0.858-0.649,1.716-1.299,2.575-1.948c1.478-0.037,2.97-0.052,4.463-0.067
	c0.731-0.754,1.455-1.515,2.202-2.239c-2.063-6.041-7.85-5.153-10.478-5.142c-0.746-1.433-1.269-2.955-1.53-4.53
	c-0.5-2.612-1.918-4.896-3.022-7.269c-2.246-1.306-4.597-2.411-6.911-3.56c-0.963-1.784-2.045-3.485-3.224-5.112
	c0.313-2.806,1.575-5.366,3.679-7.254c0.134-3.172-3.366-5-3.105-8.172c0.037-1.485,1.515-2.366,2.328-3.44
	c0.336-1.858-0.91-3.216-1.993-4.515c-0.91-1.075-0.366-2.537-0.179-3.746c1.172-4.776,0.53-9.761-0.321-14.523
	c-3.762,1.093-3.032,12.766-2.769,16.56c0.254,2.418-2.739,4.508-1.119,6.881c1.06,1.575,1.343,3.418,0.993,5.284
	c-4.511,4.486-3.176,4.985-0.642,8.552c-0.037,1.47-0.082,2.955-0.149,4.44c-1.321,1.552-2.403,3.299-3.202,5.179
	c-2.806,1.5-6.597,2.127-7.933,5.425c-1.634,2.366-0.731,5.702-2.44,7.926c-2.642,0.5-5.246,1.157-7.829,1.911
	c-1.015,1.119-1.97,2.299-2.843,3.545c0.478,0.716,0.955,1.448,1.433,2.194c1.575,0.925,3.291,1.59,5.127,1.791
	c0.642,0.53,1.284,1.075,1.933,1.634c1.878,6.655,3.338,16.69,3.328,18.456c1.306,1.284,2.433,2.776,2.231,4.731
	c-1.187,0.746-2.343,1.53-3.5,2.328c-0.157,0.739-0.306,1.5-0.448,2.261c1.142,0.687,2.291,1.366,3.448,2.06
	c-0.719,116.2-0.588,110.508-3.731,111.085c-8.978,1.358-18.142-0.201-27.12,1.022c-5.157,1.463-10.553,0.851-15.836,1.015
	c-2.791-0.022-5.426,1.157-8.217,1.142c-24.396,0.959-18.421-0.684-40.232,1.612c-5.217,0.604-10.455-0.634-15.665,0.097
	c-3.142-0.045-6.523,1.343-9.426-0.343c1.134-1.537,1.948-3.478,3.731-4.381c5.265-2.985,3.781-3.191,8.493-10.336
	c0.291-1.336,0.112-2.717,0.127-4.052c-2.202-0.052-4.426-0.179-6.493-0.985c-2.343-0.888-4.918-0.47-7.299-1.149
	c-11.662-3.532-17.561-1.356-20.747-5.746c-1.657-4.97-0.642-10.329-0.172-15.418c-0.075-1.821,1.373-2.97,2.508-4.142
	c0.015-1.104,0.022-2.202,0.022-3.276c-1.687-2.216-3.731-4.493-4.097-7.351c-0.149-4.314-1.567-8.545-0.821-12.866
	c1.112-9.896,0.157-19.844,0.052-29.755c0.187-5.299,5.672-8.776,5.515-14.172c0-1.011-0.004-27.792,0.358-30.523
	c2.306-0.112,4.687,0.09,6.896-0.702c3.993-1.366,8.269-0.582,12.381-0.993c2.71-0.352,17.73-6.033,19.023-6.142
	c5.325-2.963,17.196-2.537-22.015-11.971c-6.17-4.084-11.745-3.837-16.045-5.94c-0.09-2.806-0.187-5.642,0.246-8.418
	c0.903-1.597,2.485-2.634,3.769-3.888c-0.903-1.597-2.478-2.59-3.575-4c-0.619-3.948,0.276-7.948,0.284-11.911
	c-2.209-1.343-4.791-1.515-7.306-1.642c-0.321-0.396-0.963-1.194-1.284-1.59c1.39-14.831-11.417-36.617-33.023-46.703
	c0.657-1.44,1.515-2.828,1.724-4.411c-0.448-0.799-1.007-1.508-1.537-2.224c-1.478-0.112-3.06-0.03-4.321-0.94
	c-2.485-1.597-5.769-1.806-7.597-4.351c-1.481-1.867-12.766-11.909-13.538-14.03c0.567-1.47,1.03-2.978,1.694-4.403
	c0.632-1.423,4.847-3.239,2.545-8.127c-6.012-5.596-3.89-4.51-0.313-10.62c-0.851-1.672-2.052-3.097-3.157-4.59
	c-1.395-6.914,3.616-4.991-1.06-21.217c-4.709,6.996-1.55,15.469-2.008,21.321c-1.881,1.612-3.888,3.545-2.925,6.269
	c0.791,0.709,1.575,1.44,2.366,2.172c-0.03,1.269-0.052,2.545-0.082,3.828c-1.187,0.679-2.373,1.366-3.575,2.022
	c-2.696,6.786,1.49,6.099,2.754,9.627c0.649,1.664,1.634,4.172-0.366,5.343c-2.122,1.367-11.01,10.482-16.523,14.157
	c-2.679,1.94-6.202,1.104-9.194,2.194c0.231,1.784,0.754,3.508,1.381,5.202c-24.376,11.887-34.889,32.482-34.523,41.621
	c-0.261,2.433,1.119,5.567-1.202,7.351c-1.739,1.127-3.754,1.731-5.627,2.605c-1.15,15.385,1.81,8.806-4.351,15.493
	c1.03,1.291,2.149,2.522,3.127,3.866c0.694,2.284-0.254,4.642-0.791,6.866c-5.291,0.522-10.09,3.239-15.418,3.575
	c-2.336,1.552-5.306,1.284-7.784,2.493c-2.03,0.799-3.343,2.619-5.015,3.925c-4.5,2.97-9.642,4.754-14.276,7.478
	c0.604,0.739,1.216,1.485,1.836,2.246c3.98,0.629,30.876,2.478,36.971,7.217c6.716,0.724,5.793,7.307,4.508,33.941
	c-0.5,4.418,3.582,7.627,3.724,11.993c0.149,8.426-0.321,16.866,0.045,25.299c-0.231,4.209,0.769,8.754-1.231,12.664
	c-1.134,2.381-1.888,4.911-2.448,7.485c-1.129,5.1-3.702,2.773-2,10.232c1.182,4.03,1.541,14.112-0.418,17.859
	c-2.299,0.881-4.724,1.291-7.187,1.112c-6.391-0.456-15.754,5.795-21.612,6.836c-0.44,1.112-0.724,2.269-0.888,3.47
	c2.776,2.657,3.142,6.739,5.582,9.627c0.746,0.127,1.493,0.269,2.239,0.425c1.508,2.448,3.067,4.873,4.836,7.149
	c0.627,0,1.873-0.008,2.5-0.008c0.881-0.948,1.769-1.881,2.664-2.799c4.023,1.664,7.284,4.657,10.747,7.231
	c0.91,0.008,1.821,0.022,2.731,0.045c2.658,7.19,0.402-4.201-0.202,35.023c0.5,7.06-0.336,14.105-0.507,21.165
	c-8.458,4.75-6.272,9.849-4.62,11.314c1.522,1.179,3.306,1.978,4.836,3.164c-3.192,180.85-5.606,165.449-6.314,306.956H2580.5z
	 M2524.864,752.984c-0.799-2.41,0.44-4.821,0.217-7.269c6.254-0.321,10.15-5.739,14.374-9.635
	c2.771,1.855,1.062,10.179,2.291,21.322c-0.881,1.44-2.142,2.56-3.269,3.769c-2.181,4.316-0.417,5.752-6.388,8.582
	c-1.612-0.836-3.44-0.716-5.149-0.746c-2.634-1.963-1.881-5.478-2.448-8.306C2524.774,758.141,2525.498,755.551,2524.864,752.984z
	 M2405.01,615.98c3.888,2.851,3.567,8.261,3.396,12.575c-0.478,3.478,0.612,7.635-2.261,10.314
	c-0.008,0.657-0.022,1.963-0.022,2.612c0.769,1.358,1.552,2.724,2.291,4.134c0.239,2.164-1.022,4.164-0.552,6.321
	c-2.149-4.194-3.202-8.896-2.985-13.62C2405.174,630.876,2403.062,623.316,2405.01,615.98z M2374.905,616.055
	c0.627-5.605,8.105-7.097,8.649-12.754c0.508-2.411-0.119-5.052,1.269-7.239c2.284,1.575,5.731,2.321,6.351,5.478
	c1.849,3.711,1.611,45.27,1.597,44.27c0.03,2.09-0.156,4.448-2.06,5.724c-2.761,1.806-1.44,5.873-4.105,7.791
	c-2.828,1.433-6.09,1.739-9.015,2.918c-0.597-0.522-1.164-1.045-1.694-1.56C2375.874,658.164,2373.709,623.024,2374.905,616.055z
	 M562.7,803.933c0.537-2.217,0.067-4.508,0.007-6.732c2.06-1.858,2.769-4.717,4.896-6.5c1.821,0.455,3.306-0.508,4.739-1.5
	c2.649-0.537,5.015,1.933,5.94,4.239c0.545,1.828,2.463,2.522,3.605,3.888c3.532,7.063,1.188,8.044,2.164,14.12
	c-1.067,1.724-3.269,1.985-5.112,2.149c-6.634,0.008-13.209,1.157-19.851,0.843c-0.276-0.373-0.828-1.112-1.104-1.485
	C557.402,809.052,561.178,807,562.7,803.933z M524.035,802.851c1.53-2.067,0.791-4.746,1.254-7.09
	c1.015-1.731,2.269-3.328,3.097-5.164c1.799-0.575,3.761-0.843,5.276-2.075c0.679-0.411,1.522-1.366,2.358-0.657
	c12.713,8.037,9.021,15.136,9.635,22.821c-0.223,5.697,0.767,5.378-24.239,5.276C519.323,811.183,519.54,809.657,524.035,802.851z
	 M501.467,802.866c1.097-1.209,1.978-2.619,3.142-3.761c5.531-4.106,3.923,12.579,4.112,14.687c-0.209,4-6.314,4.746-7.978,1.254
	C500.348,810.978,500.505,806.851,501.467,802.866z M209.027,742.08c0.202-4.806-1.015-10.149,1.858-14.411
	c1.008-1.261,1.91-3.351,3.888-2.806c2.299-0.287,1.773,0.563,1.485,37.359c0.328,3.44-3.396,5.328-3.657,8.702
	c-0.403,0.291-1.202,0.866-1.597,1.149c-0.709-0.575-1.448-1.097-2.082-1.724C208.019,760.939,209.46,751.506,209.027,742.08z
	 M199.959,730.065c0.321-0.254,0.963-0.769,1.284-1.022c0.522,0.813,1.06,1.634,1.582,2.478c0.366,8.015-1.388,15.993-0.373,24.008
	c0.082,2.067,1.187,4.903-1.127,6.164c-2.052-0.097-1.948-2.5-1.948-3.97C199.413,751.332,198.729,742.982,199.959,730.065z
	 M175.727,724.535c0.172-3.411-0.351-7.023,1.597-10.008c0.59-4.314,5.836-4.44,8.12-7.463c3.022,0.075,3.231,3.306,3.358,5.62
	c10.187,13.644,2.602,27.228,4.911,45.091c0.463,2.47-1.448,4.418-1.896,6.731c-0.582,2.866-1.769,5.575-3.47,7.955
	c-5.149,2.358-10.754-0.157-16.12,0.194c-1.321-0.194-3.634,0.343-3.851-1.537C168.571,720.489,169.201,735.99,175.727,724.535z
	 M154.406,719.013c0.321-0.351,0.963-1.06,1.284-1.411c0.739,0.522,1.485,1.052,2.231,1.59c0.202,2.313-0.037,4.657,0.276,6.97
	c4.196,10.358,4.448-7.295,4.358,43.561c-0.388,1.149-1.142,1.493-2.261,1.03c-4.391-3.473-3.418-8.261-4.493-9.963
	c-0.612-1.485-1.933-2.813-1.813-4.493C154.919,743.192,153.479,731.331,154.406,719.013z M124.965,729.237
	c0.836-2.933,4.358-4.105,4.978-7.127c0.298-1.94,0.149-3.925,0.59-5.829c2.172-0.56,3.097-2.478,3.217-4.56
	c1.619-1.896,4.269-1.545,6.485-1.948c2.388-0.418,3.485,2.119,5.112,3.343c4.62,4.02,1.998,11.886,2.269,43.165
	c0.381,2.142-1.552,3.493-2.888,4.806c-0.657,4.09-1.642,8.56-5.366,11c-3.709-0.254-7.485-0.44-11.157,0.321
	c-2.082,0.463-4.149-1.44-4.157-3.523C124.308,756.239,123.23,734.782,124.965,729.237z M113.562,733.819
	c0.187-2.455-0.918-5.567,1.261-7.396c0.493-0.015,1.47-0.052,1.963-0.067c0.97,1.843,1.47,3.896,1.328,6
	c-0.784,10.441-0.127,20.933-0.351,31.396c-0.881-0.037-1.761-0.06-2.634-0.075c-0.619-0.627-1.231-1.239-1.836-1.851
	C112.979,752.491,113.89,743.155,113.562,733.819z M105.397,720.99c5.104,0.851,0.84,0.554,1.784,35.971
	c0.298,3.5-1.44,6.784-3.552,9.441c-0.776-0.478-1.552-0.94-2.321-1.403C101.518,724.906,102.162,723.286,105.397,720.99z"/>
</svg>
