<?xml version="1.0" standalone="no"?>
<!DOCTYPE svg PUBLIC "-//W3C//DTD SVG 20010904//EN"
 "http://www.w3.org/TR/2001/REC-SVG-20010904/DTD/svg10.dtd">
<svg version="1.0" xmlns="http://www.w3.org/2000/svg"
 width="1000.000000pt" height="1000.000000pt" viewBox="0 0 1000.000000 1000.000000"
 preserveAspectRatio="xMidYMid meet">
<metadata>
Created by potrace 1.11, written by Peter Selinger 2001-2013
</metadata>
<g transform="translate(0.000000,1000.000000) scale(0.100000,-0.100000)"
fill="#000000" stroke="none">
<path d="M0 5000 l0 -5000 754 0 753 0 7 218 c3 119 26 1182 51 2362 l45 2145
87 218 c48 119 90 217 93 217 3 0 48 -82 101 -183 l96 -182 8 -2030 c3 -1117
8 -2031 9 -2032 1 -2 777 24 794 27 2 0 -30 33 -71 73 -304 297 -480 909 -480
1672 -1 283 12 387 69 587 143 496 489 900 1039 1211 55 31 233 120 395 197
527 252 596 288 721 371 151 101 312 256 328 316 9 32 177 1745 184 1867 l2
38 -75 20 c-99 26 -247 96 -329 157 -446 331 -554 1011 -237 1501 43 66 209
250 226 250 4 0 -5 -33 -20 -73 -87 -224 -93 -512 -16 -745 103 -309 341 -563
640 -682 156 -63 223 -74 421 -74 163 0 189 3 278 27 105 28 257 95 331 147
25 17 46 29 46 26 0 -12 -67 -115 -112 -172 -154 -198 -400 -349 -648 -399
-83 -17 -260 -25 -349 -15 l-43 4 3 -224 c4 -259 -1 -951 -10 -1345 l-6 -270
39 -43 c49 -54 166 -142 283 -214 132 -83 318 -178 773 -398 226 -109 469
-233 540 -276 621 -370 967 -881 1029 -1518 37 -378 -28 -962 -149 -1326 -88
-267 -195 -456 -330 -584 -40 -37 -70 -69 -68 -70 5 -5 789 -29 793 -25 2 2 7
917 11 2034 l7 2029 94 176 c52 96 97 178 101 182 4 4 46 -91 94 -210 l87
-217 46 -2155 c25 -1185 48 -2257 52 -2382 l6 -228 754 0 753 0 0 5000 0 5000
-5000 0 -5000 0 0 -5000z"/>
</g>
</svg>
